<svg id="Layer_1" data-name="Layer 1" xmlns="http://www.w3.org/2000/svg" viewBox="0 0 267.43 292.94"><defs><style>.cls-1,.cls-4{fill:none;}.cls-1,.cls-3,.cls-4{stroke:#282973;stroke-miterlimit:10;}.cls-1{stroke-width:6px;}.cls-2,.cls-3{fill:#282973;}.cls-3{font-size:48px;font-family:Flix-Outline, Flix;}.cls-3,.cls-4{stroke-width:3px;}</style></defs><circle class="cls-1" cx="126.56" cy="117.67" r="93.4"/><path class="cls-2" d="M422.13,228.27a110.43,110.43,0,0,1-215.88,0h-6.44a116.74,116.74,0,0,0,228.75,0Z" transform="translate(-187.29 -88.2)"/><path class="cls-2" d="M206.25,181.57a110.44,110.44,0,0,1,215.88,0h6.43a116.74,116.74,0,0,0-228.75,0Z" transform="translate(-187.29 -88.2)"/><rect class="cls-2" x="67.06" y="46.69" width="33.93" height="33.93"/><rect class="cls-2" x="152.82" y="46.69" width="33.93" height="33.93"/><rect class="cls-2" x="110.25" y="46.69" width="33.93" height="33.93"/><rect class="cls-2" x="67.06" y="157.27" width="33.93" height="33.93"/><rect class="cls-2" x="152.82" y="157.27" width="33.93" height="33.93"/><rect class="cls-2" x="110.25" y="157.27" width="33.93" height="33.93"/><text class="cls-3" transform="translate(14.77 275.86)">MEDILEDGER</text><rect class="cls-2" x="100.98" y="61.76" width="9.27" height="6.33"/><rect class="cls-2" x="144.18" y="61.76" width="9.27" height="6.33"/><rect class="cls-2" x="144.18" y="171.07" width="9.27" height="6.33"/><rect class="cls-2" x="100.98" y="171.07" width="9.27" height="6.33"/><line class="cls-4" x1="84.02" y1="77.85" x2="169.78" y2="159.61"/><line class="cls-4" x1="169.78" y1="77.32" x2="84.02" y2="160.13"/><line class="cls-4" x1="126.9" y1="75.21" x2="126.56" y2="162.24"/><line class="cls-4" x1="84.02" y1="77.85" x2="84.02" y2="160.13"/><line class="cls-4" x1="169.78" y1="77.32" x2="169.78" y2="159.61"/></svg>